<svg width="213" height="212" viewBox="0 0 213 212" fill="none" xmlns="http://www.w3.org/2000/svg">
<path d="M121 6L120.466 6.6233C119.164 8.1416 119.509 10.4605 121.196 11.5341C122.532 12.3839 124.283 12.161 125.363 11.004L126.181 10.127C128.338 7.81688 127.665 4.08268 124.839 2.66948L123.905 2.20235C121.856 1.1778 119.386 1.528 117.703 3.08192L117.077 3.65967C115.193 5.39916 114.458 8.05703 115.182 10.5174L115.448 11.4219C116.117 13.6968 117.731 15.5745 119.88 16.5772L120.7 16.9602C122.835 17.9563 125.247 18.1882 127.533 17.6169L134 16L141.215 13.1942C142.395 12.7354 143.649 12.5 144.915 12.5C147.831 12.5 150.608 13.7471 152.546 15.9266L153.5 17" stroke="#4A3421"/>
<path d="M206 92L205.786 92.1336C203.823 93.3606 201.228 92.4934 200.397 90.3328C199.856 88.9244 200.228 87.3282 201.337 86.3047L201.867 85.8152C204.027 83.8208 207.463 84.2508 209.065 86.7161L209.738 87.7505C211.319 90.183 210.855 93.4103 208.652 95.2984L208.149 95.7297C206.493 97.1487 204.24 97.6499 202.139 97.0663L200.696 96.6656C198.056 95.9323 195.92 93.9923 194.937 91.4354C194.326 89.8471 194.197 88.114 194.566 86.4529L195.556 82.0002C195.851 80.6692 196.261 79.3661 196.78 78.1053L199.5 71.5L199.642 71.0458C201.045 66.5568 199.367 61.677 195.5 59" stroke="#4A3421"/>
<path d="M167.488 22.8095L167.024 23.4869C165.895 25.1369 163.565 25.4038 162.092 24.0521C160.925 22.9822 160.687 21.2329 161.526 19.8903L162.161 18.8728C163.834 16.1922 167.615 15.8751 169.712 18.2394L170.405 19.0209C171.925 20.735 172.225 23.2108 171.16 25.239L170.764 25.9931C169.572 28.2636 167.194 29.6611 164.631 29.5989L163.688 29.576C161.318 29.5185 159.086 28.4452 157.561 26.6292L157.221 26.2243C155.571 24.2583 154.795 21.6781 155.07 19.1256C155.352 16.4933 156.717 14.0691 158.833 12.4785L159.408 12.0467C160.786 11.0109 162.384 10.3068 164.078 9.98906L164.201 9.96611C167.566 9.33506 171.04 10.204 173.712 12.3456L182.646 19.506C183.846 20.4684 185.339 20.9929 186.878 20.9929L187.046 20.9929C189.204 20.9929 191.219 19.9144 192.416 18.1191C193.123 17.0589 193.5 15.8133 193.5 14.5392L193.5 13.2972C193.5 12.4489 193.25 11.6192 192.783 10.9116C191.982 9.7005 190.627 8.97202 189.175 8.97202L188.287 8.97202C187.444 8.97202 186.616 9.19451 185.887 9.61701L185.108 10.0685C184.113 10.6451 183.5 11.708 183.5 12.858C183.5 14.1417 184.27 15.3068 185.448 15.8185C186.417 16.2397 187.537 16.1665 188.44 15.6173L188.899 15.3379C189.289 15.1003 189.593 14.7433 189.764 14.3196C190.18 13.2922 189.736 12.1178 188.744 11.6222L188.5 11.5" stroke="#4A3421"/>
<path d="M187 47.5L188.002 49.2536C188.619 50.3335 189.768 51 191.011 51C191.874 51 192.705 50.6785 193.343 50.0984L193.712 49.7627C196.351 47.3636 195.509 43.0217 192.164 41.7831L191.024 41.3609C188.229 40.3256 185.118 41.7075 184.012 44.4756L183.387 46.0414C182.517 48.2185 182.758 50.6821 184.032 52.6497L184.194 52.8999C185.632 55.1199 188.097 56.4601 190.742 56.4601L192.347 56.4601C195.24 56.4601 198.009 55.2855 200.019 53.2054L200.137 53.0839C201.453 51.7222 202.359 50.0173 202.752 48.1645C203.121 46.4194 203.021 44.6076 202.462 42.9138L202.304 42.4362C201.774 40.8304 200.909 39.3554 199.766 38.1089L193.624 31.4089C192.788 30.497 192.184 29.397 191.864 28.202L191.693 27.5622C191.134 25.4779 191.654 23.2524 193.079 21.6316C193.92 20.6745 195.025 19.9879 196.256 19.6581L197.456 19.3366C198.275 19.1171 199.141 19.1433 199.946 19.4122C201.323 19.8722 202.377 20.9926 202.753 22.395L202.983 23.253C203.201 24.067 203.2 24.9242 202.981 25.7378L202.747 26.6073C202.447 27.7177 201.579 28.5845 200.468 28.8822C199.228 29.2144 197.903 28.7719 197.105 27.7671C196.447 26.9401 196.228 25.8391 196.525 24.8251L196.676 24.3092C196.804 23.8706 197.07 23.4851 197.435 23.2099C198.32 22.5425 199.569 22.6673 200.305 23.4966L200.486 23.7011" stroke="#4A3421"/>
<path d="M137 11C141.425 7.75479 147.477 7.88188 151.763 11.31L152 11.5" stroke="#4A3421"/>
<path d="M200.495 59.7407C204.307 63.6886 204.996 69.7027 202.176 74.4105L202.02 74.6714" stroke="#4A3421"/>
<path d="M206.365 42.1312C208.354 47.2456 206.665 53.0586 202.245 56.3104L202 56.4907" stroke="#4A3421"/>
<path d="M193.491 59.747C197.11 62.6099 198.59 67.4079 197.212 71.8123L196.995 72.5063" stroke="#4A3421"/>
<path d="M140.142 15.2738C144.653 13.3229 149.912 15.0035 152.456 19.2092L152.626 19.4905" stroke="#4A3421"/>
<path d="M154.75 12.2631C156.96 7.24007 162.265 4.32409 167.69 5.15036L167.99 5.19615" stroke="#4A3421"/>
<path d="M149.283 7.7051L152.559 10.6533C153.039 11.0853 153.797 10.9558 154.106 10.3889L156.025 6.87112C156.288 6.38892 156.113 5.78485 155.633 5.51811L152.659 3.86632C152.269 3.64949 151.782 3.71766 151.467 4.03337L149.245 6.2547C148.84 6.65982 148.858 7.32183 149.283 7.7051Z" fill="#4A3421"/>
<path d="M188.077 28.7851L187.845 24.3841C187.811 23.7391 187.184 23.295 186.564 23.4772L182.72 24.6079C182.193 24.7629 181.89 25.3139 182.041 25.842L182.975 29.1123C183.098 29.5416 183.49 29.8376 183.937 29.8376L187.078 29.8376C187.651 29.8376 188.107 29.3572 188.077 28.7851Z" fill="#4A3421"/>
<path d="M205.533 55.7387L201.838 58.1398C201.296 58.4917 201.225 59.2569 201.693 59.7024L204.594 62.4662C204.992 62.8451 205.621 62.8323 206.002 62.4375L208.367 59.9932C208.678 59.6723 208.738 59.1845 208.515 58.7978L206.944 56.0773C206.658 55.5811 206.014 55.4266 205.533 55.7387Z" fill="#4A3421"/>
<path d="M201 100V212" stroke="#4A3421" stroke-width="0.5"/>
<path d="M203 100V212" stroke="#4A3421" stroke-width="0.5"/>
<path d="M112 10L-2.71201e-06 10" stroke="#4A3421" stroke-width="0.5"/>
<path d="M112 12L-2.71201e-06 12" stroke="#4A3421" stroke-width="0.5"/>
</svg>
