<svg width="1440" height="58" viewBox="0 0 1440 58" fill="none" xmlns="http://www.w3.org/2000/svg">
<g clip-path="url(#clip0_514_860)">
<path d="M84.8239 1.11538C108.399 1.12326 137.584 1.07268 160.908 1.1038C161.235 1.10424 161.562 1.10468 161.89 1.10511C171.422 1.11784 181.135 1.1362 192.887 1.15841C194.384 1.16124 195.918 1.1642 197.485 1.16715C211.415 1.19338 228.528 1.22482 251.847 1.25976C330.148 1.37711 391.886 1.29913 411.089 1.27484C449.604 1.22612 490.689 1.22509 546.75 1.22372C551.876 1.2236 557.13 1.22367 562.517 1.2235C566.881 1.22337 570.494 1.26281 570.594 1.31175C570.692 1.36071 567.236 1.40052 562.87 1.40065C557.596 1.40082 552.455 1.40096 547.446 1.40109C547.423 1.40109 547.4 1.40109 547.377 1.40109C490.964 1.40249 450.772 1.40354 413.166 1.45111C393.544 1.47593 330.29 1.55563 250.056 1.43538C226.489 1.40006 209.184 1.3685 195.169 1.34211C193.634 1.33922 192.139 1.33634 190.685 1.33359C190.651 1.33352 190.617 1.33345 190.582 1.33337C178.754 1.31103 169.449 1.29334 160.327 1.28117C160.133 1.28095 159.939 1.28073 159.745 1.28051C136.158 1.24904 107.529 1.30017 84.6642 1.29253C80.2993 1.29105 76.7933 1.25014 76.8379 1.20122C76.8849 1.15233 80.4613 1.11396 84.8239 1.11538ZM1259.29 55.4663C1236.53 55.5312 1206.25 55.5241 1179.51 55.4952C1152.58 55.4661 1128.22 55.4137 1116.75 55.3816C1105.54 55.3502 1093.08 55.34 1078.22 55.3337C1074.81 55.3323 1071.28 55.3311 1067.62 55.3298C1055.55 55.3256 1042.11 55.3209 1027.36 55.3069C973.184 55.2554 937.863 55.2533 912.637 55.2579C907.448 55.2589 902.62 55.2602 898.102 55.2614C898.094 55.2614 898.087 55.2614 898.079 55.2614C881.025 55.266 868.3 55.2694 856.597 55.2492C835.767 55.2133 818.758 55.1814 798.23 55.1192C769.92 55.0335 729.596 55.0436 703.356 55.1026C701.916 55.1059 700.443 55.1093 698.952 55.1127C679.93 55.1557 656.506 55.2086 621.385 55.2481C592.204 55.2809 566.772 55.2783 544.262 55.2691C537.811 55.2664 531.655 55.2631 525.746 55.2601C510.829 55.2525 497.479 55.2456 484.903 55.2496C406.914 55.2744 361.937 55.2424 333.669 55.1942C311.929 55.1571 299.784 55.1094 291.024 55.0749C288.376 55.0645 286.038 55.0551 283.836 55.0478C264.205 54.9825 246.181 54.9531 224.5 54.9178C219.688 54.91 214.682 54.9018 209.452 54.8929C191.958 54.8632 178.922 54.8684 168.7 54.8809C164.229 54.8864 160.294 54.8932 156.584 54.8997C156.515 54.8999 156.447 54.9 156.378 54.9001C155.861 54.9011 155.348 54.9019 154.838 54.9028C154.454 54.9034 154.07 54.9043 153.686 54.905C153.535 54.9058 153.399 54.9064 153.298 54.9069C153.218 54.9073 153.156 54.9076 153.116 54.9078C153.108 54.9079 153.1 54.9079 153.093 54.908C152.365 54.9114 151.738 54.9128 151.61 54.913C151.385 54.9135 151.187 54.9138 151.085 54.9139C150.548 54.9147 149.856 54.9152 149.396 54.9154C148.214 54.9161 146.16 54.9168 142.985 54.9176C140.22 54.9202 137.566 54.9245 134.245 54.9301C134.036 54.9304 133.827 54.9308 133.618 54.9312C130.379 54.9366 126.589 54.9428 121.833 54.9489C117.506 54.9544 113.526 54.9195 112.946 54.8709C112.367 54.8222 115.407 54.7784 119.734 54.7728C124.215 54.7671 127.764 54.7612 131.006 54.7558C131.211 54.7554 131.416 54.755 131.621 54.7547C135 54.749 138.201 54.7438 141.65 54.7407C142.804 54.7397 143.995 54.7389 145.107 54.7383C147.108 54.7361 149.386 54.7323 152.111 54.7276C152.659 54.7266 153.223 54.7258 153.8 54.7247C157.504 54.7182 161.816 54.7106 166.68 54.7047C178.065 54.6907 192.49 54.6854 211.528 54.7178C216.52 54.7262 221.359 54.7341 226.085 54.7418C247.852 54.7772 267.218 54.8086 288.057 54.8779C290.917 54.8874 293.659 54.8982 296.591 54.9098C305.282 54.9439 315.659 54.9847 335.757 55.019C362.686 55.0649 406.592 55.0971 484.138 55.0725C497.339 55.0683 511.579 55.0757 526.75 55.0834C532.541 55.0864 538.477 55.0892 544.536 55.0917C566.695 55.1008 591.327 55.1033 619.502 55.0716C653.84 55.033 676.624 54.9816 695.564 54.9388C696.218 54.9373 696.872 54.9358 697.526 54.9342C698.339 54.9324 699.145 54.9306 699.945 54.9288C727.907 54.8659 770.812 54.8534 802.087 54.9482C821.712 55.0077 837.992 55.0383 858.708 55.074C868.895 55.0916 879.781 55.0887 896.493 55.0843C901.185 55.083 906.343 55.0818 912.066 55.0808C937.744 55.076 973.604 55.0782 1028.39 55.1302C1042.67 55.1437 1055.52 55.1482 1067.53 55.1524C1071.26 55.1537 1074.92 55.1551 1078.51 55.1566C1093.44 55.1629 1107.34 55.1731 1120.3 55.2094C1130.95 55.2393 1154.53 55.2904 1180.72 55.3187C1207.09 55.3472 1235.09 55.3514 1255.1 55.2944C1257.18 55.2885 1259.28 55.2826 1261.38 55.2767C1279.43 55.2259 1297.83 55.174 1312.65 55.0878C1345.67 54.8183 1392 54.7338 1440 54.721L1438.72 56C1438.72 37.357 1438.72 18.4628 1438.73 1.75238e-05L1440 1.26816C1410.38 1.25211 1381.88 1.22532 1357.3 1.2152C1356.26 1.21477 1355.22 1.21433 1354.18 1.21389C1262.59 1.17622 1196.03 1.18101 1173.34 1.18266C1172.28 1.18273 1171.32 1.18282 1170.45 1.18288C1169.68 1.18293 1168.98 1.18306 1168.36 1.18309C1159.12 1.18355 1150.94 1.18984 1142.37 1.19642C1141.91 1.19678 1141.44 1.19715 1140.97 1.19751C1131.92 1.20444 1122.41 1.21121 1111.18 1.21062C1069.42 1.20841 1035.37 1.21648 1005.91 1.22503C1000.46 1.22662 995.158 1.22805 989.988 1.22962C989.973 1.22962 989.958 1.22962 989.943 1.22962C967.255 1.23649 947.128 1.24268 928.028 1.24273C893.198 1.24281 869.672 1.25402 851.373 1.2661C845.634 1.26989 840.346 1.27375 835.355 1.27746C824.564 1.28546 815.139 1.29248 805.419 1.29493C787.136 1.29953 770.311 1.31171 753.737 1.32355C752.26 1.3246 750.785 1.32556 749.311 1.3266C731.345 1.33936 713.553 1.35119 694.743 1.3515C690.377 1.35158 686.758 1.31178 686.666 1.26282C686.578 1.21391 690.049 1.17421 694.412 1.17414C712.683 1.17383 730.037 1.16243 747.999 1.14967C749.481 1.14862 750.969 1.14746 752.46 1.1464C768.992 1.13459 786.125 1.12247 804.746 1.11778C814.118 1.11542 823.02 1.10882 833.598 1.10096C838.646 1.09722 844.081 1.09316 850.129 1.08917C868.706 1.07691 892.543 1.06545 927.708 1.06536C946.578 1.06531 966.447 1.05934 989.121 1.05247C994.324 1.0509 999.676 1.04927 1005.2 1.04767C1034.73 1.03909 1068.95 1.03103 1110.94 1.03325C1121.55 1.03381 1130.56 1.02748 1139.58 1.02058C1140.08 1.02022 1140.59 1.01985 1141.1 1.01949C1149.59 1.01296 1158.22 1.00621 1167.99 1.00573C1169.29 1.00566 1170.96 1.00565 1172.96 1.00551C1195.68 1.00386 1262.51 0.998935 1354.44 1.03675C1354.72 1.03689 1355.01 1.03704 1355.29 1.03718C1391.62 1.05212 1418.6 1.06323 1440 1.06084L1438.94 1.75238e-05C1438.94 14.886 1438.95 27.0658 1438.97 37.8005C1438.98 44.3685 1438.99 50.4087 1438.99 56L1440 54.9928C1428.01 55.0067 1418.09 55.0117 1409.45 55.0146C1407.04 55.0154 1404.75 55.0162 1402.57 55.0168C1393.16 55.0194 1385.72 55.0215 1378.28 55.0338C1355.79 55.071 1339.66 55.1319 1320.14 55.2455C1303.6 55.3418 1283.33 55.3988 1265.58 55.4486C1265.55 55.4487 1265.52 55.4488 1265.5 55.4488C1263.39 55.4548 1261.31 55.4605 1259.29 55.4663ZM59.1764 55.0666C54.8132 55.0651 51.3107 55.0244 51.3501 54.9755C51.3947 54.9266 54.9706 54.888 59.3362 54.8894C69.7371 54.8929 80.1378 54.8964 90.5388 54.8999C94.9014 54.9014 98.4053 54.9421 98.3652 54.991C98.3207 55.0399 94.7439 55.0785 90.3791 55.0771C79.9784 55.0736 69.5771 55.0701 59.1764 55.0666ZM1277.5 56.3481C1273.24 56.358 1269 56.327 1268.03 56.2791C1267.07 56.2312 1269.74 56.1844 1274 56.1745C1276.25 56.1692 1279.95 56.1597 1284.92 56.1469C1310.35 56.0816 1369.21 55.9303 1440 55.8203L1439.82 56C1439.79 37.9873 1439.77 19.2025 1439.75 1.75238e-05L1440 0.253477C1428.23 0.266055 1416.3 0.276838 1404.29 0.285341C1395.15 0.291816 1386.96 0.298215 1379.16 0.304345C1345.79 0.330567 1318.99 0.456464 1255.16 0.451349C986.752 0.429826 718.553 0.204834 450.575 0.359171C373.178 0.403747 296.024 0.410416 218.568 0.407444C154.009 0.404966 35.6709 0.314087 7.82677 0.304782C3.46011 0.303322 -0.0441921 0.262412 0.000421296 0.213477C0.04707 0.164569 3.62183 0.126184 7.98649 0.127633C35.634 0.136873 153.578 0.227613 217.895 0.230078C295.202 0.233039 372.198 0.22651 449.445 0.182022C717.735 0.0275035 986.795 0.0377185 1255.51 0.0592648C1318.73 0.0643334 1344.46 0.153749 1377.71 0.127633C1385.53 0.12149 1393.77 0.114947 1402.99 0.108412C1415.44 0.0995933 1427.81 0.0882963 1440 0.0750703L1439.92 1.75238e-05C1439.95 19.2235 1439.97 38.0103 1440 56C1371.33 56.1078 1314.28 56.2543 1288.87 56.3195C1283.74 56.3327 1279.88 56.3426 1277.5 56.3481ZM1074.46 56.2741C1025.72 56.2875 956.428 56.2636 895.877 56.2426C866.348 56.2324 838.896 56.2227 816.918 56.2186C782.867 56.2122 761.43 56.1698 740.172 56.1277C739.944 56.1273 739.715 56.1269 739.487 56.1264C718.243 56.0844 696.982 56.0429 662.399 56.0364C627.531 56.0299 579.283 56.0587 530.617 56.0878C530.579 56.0878 530.541 56.0878 530.503 56.0878C482.096 56.1167 432.995 56.2357 397.512 56.2289C273.863 56.205 197.622 56.0833 159.071 55.9877C108.779 55.863 53.4546 55.9356 4.51474e-09 55.8929L0.107115 56C0.121685 37.7799 0.149657 19.777 0.203412 2.26477C0.250241 -5.33304 0.385064 7.4821 0.346266 21.4884C0.345173 21.9942 0.344081 22.4999 0.342989 23.0057C0.332824 27.8229 0.324568 32.038 0.31787 37.9739C0.313255 45.216 0.312267 50.8982 0.311908 56L4.51474e-09 55.6881C0.957394 55.6882 1.89472 55.6882 2.81748 55.6882C18.1447 55.689 124.548 55.7212 162.197 55.8145C198.783 55.9052 273.425 55.8128 397.866 55.8368C432.691 55.8435 480.81 55.9397 529.476 55.9106C529.609 55.9105 529.742 55.9105 529.876 55.9104C578.186 55.8815 626.903 55.8524 662.353 55.8591C698.186 55.8658 720.417 55.9093 741.94 55.9519C742.149 55.9523 742.358 55.9528 742.568 55.9532C763.628 55.9949 784.078 56.0353 816.872 56.0415C839.334 56.0456 867.106 56.0552 896.824 56.0655C957.115 56.0864 1025.44 56.1102 1073.76 56.0969C1078.12 56.0958 1081.82 56.1345 1082.01 56.1834C1082.2 56.2323 1078.82 56.2729 1074.46 56.2741ZM1073.45 57.3782C936.495 57.5747 798.774 57.5195 663.722 57.3121C628.473 57.3054 579.284 57.2917 530.161 57.2778C529.605 57.2775 529.05 57.2773 528.495 57.2771C479.904 57.2634 431.526 57.2497 396.793 57.243C273.146 57.2192 196.618 57.1872 158.067 57.0917C122.122 57.0025 112.143 57.0023 97.3499 57.0017C96.9466 57.0016 96.5438 57.0015 96.1405 57.0015C96.114 57.0016 96.0874 57.0017 96.0607 57.0019C95.5536 57.0042 95.1274 57.0055 94.9085 57.006C94.4616 57.0072 94.098 57.0076 93.9614 57.0078C93.6463 57.0082 93.3826 57.0082 93.2883 57.0082C92.9041 57.0084 92.4649 57.0083 92.1817 57.0082C89.5474 57.0073 81.2976 57.002 74.7606 56.9947C68.0622 56.9872 63.2868 56.9776 58.2523 56.9669C57.7427 56.9658 57.2331 56.9648 56.7235 56.9637C52.1855 56.954 47.2472 56.9436 40.1354 56.9322C35.8023 56.9253 32.7233 56.8804 33.2559 56.832C33.7915 56.7835 37.7327 56.7499 42.0634 56.7568C49.5459 56.7688 54.7998 56.7799 59.359 56.7896C59.8645 56.7907 60.3706 56.7918 60.8764 56.7929C65.6948 56.803 69.917 56.8113 75.856 56.818C84.4548 56.8234 90.8477 56.8238 96.6881 56.8241C112.003 56.8248 123.535 56.8253 161.181 56.9187C197.767 57.0094 272.301 57.0419 396.748 57.0659C431.545 57.0726 479.979 57.0862 528.529 57.1C529.1 57.1001 529.67 57.1003 530.241 57.1004C579.391 57.1143 628.508 57.1283 663.677 57.1349C800.754 57.1607 934.997 57.072 1072.75 57.2011C1098.09 57.1941 1121.26 57.1914 1142.73 57.1889C1205.9 57.1815 1254.37 57.1757 1300.59 57.0681C1310.72 57.0445 1337.28 57.0244 1375.66 56.9995C1386.9 56.9922 1399.24 56.9845 1412.58 56.9761C1421.3 56.9706 1430.44 56.9649 1440 56.9588L1440.96 56.9578V56C1440.95 38.6375 1440.94 19.9277 1440.92 1.75238e-05V-0.923103L1440 -0.922178C1429.77 -0.915264 1419.23 -0.907986 1408.38 -0.900302C1399.24 -0.893827 1391.05 -0.887429 1383.25 -0.881299C1349.87 -0.855079 1323.53 -0.834241 1259.69 -0.839359C1181.15 -0.845657 1049.54 -0.889664 979.161 -0.923456C943.911 -0.940381 924.012 -0.956064 909.934 -0.969107C906.014 -0.972739 902.567 -0.976257 899.404 -0.979373C891.14 -0.987515 884.723 -0.993754 876.312 -0.99794C815.749 -1.02807 773.347 -1.00731 703.882 -0.964084C699.529 -0.961389 695.733 -0.998884 695.405 -1.04774C695.078 -1.09661 698.342 -1.1385 702.695 -1.14123C772.263 -1.18452 815.312 -1.20563 876.7 -1.17509C885.481 -1.17072 892.352 -1.16393 900.761 -1.15565C903.879 -1.15257 907.209 -1.14926 910.926 -1.14582C924.77 -1.13299 944.461 -1.11744 979.526 -1.1006C1049.78 -1.06687 1181.19 -1.023 1259.5 -1.01672C1322.71 -1.01166 1348.54 -1.03189 1381.8 -1.05801C1389.62 -1.06415 1397.84 -1.0707 1407.07 -1.07723C1418.38 -1.08524 1429.36 -1.09282 1440 -1.10001L1441.1 -1.10111V1.75238e-05C1441.11 19.9361 1441.13 38.651 1441.14 56V57.1355L1440 57.1367C1430.85 57.1425 1422.08 57.148 1413.71 57.1533C1400.39 57.1616 1388.08 57.1694 1376.88 57.1766C1337.73 57.2021 1312.77 57.2215 1304.09 57.2417C1256.26 57.3531 1205.67 57.3591 1141.92 57.3665C1120.69 57.3689 1097.99 57.3715 1073.45 57.3782ZM453.53 -1.00362C457.885 -1.00612 461.663 -0.968411 461.972 -0.919524C462.279 -0.870648 459.002 -0.828981 454.648 -0.826472C431.644 -0.813223 415.107 -0.802294 402.179 -0.793708C378.251 -0.777817 366.687 -0.770068 349.368 -0.771427C304.659 -0.774937 261.49 -0.776708 222.652 -0.7782C158.095 -0.780678 105.48 -0.782656 77.6365 -0.791961C73.2706 -0.793429 69.7655 -0.834336 69.8101 -0.883265C69.8588 -0.932147 73.4336 -0.970545 77.7962 -0.969107C105.444 -0.959868 157.662 -0.957811 221.979 -0.955346C260.863 -0.953856 304.174 -0.952325 349.163 -0.948793C365.96 -0.947474 376.878 -0.954644 400.274 -0.970199C413.189 -0.978787 429.912 -0.990018 453.53 -1.00362Z" fill="black"/>
</g>
<defs>
<clipPath id="clip0_514_860">
<rect width="1440" height="58" fill="white"/>
</clipPath>
</defs>
</svg>
