<svg width="24" height="16" viewBox="0 0 24 16" fill="none" xmlns="http://www.w3.org/2000/svg">
<g clip-path="url(#clip0_283_590)">
<path d="M0 0.000116348H24V16H0V0.000116348Z" fill="#F0F0F0"/>
<path d="M13.5 0H10.5V6.49984H0V9.49978H10.5V15.9996H13.5V9.49978H24V6.49984H13.5V0Z" fill="#D80027"/>
<path d="M18.4586 10.7824L24 13.8609V10.7824H18.4586ZM14.6086 10.7824L24 15.9996V14.5243L17.2643 10.7824H14.6086ZM21.4984 15.9996L14.6086 12.1717V15.9996H21.4984Z" fill="#0052B4"/>
<path d="M14.6086 10.7824L24 15.9996V14.5243L17.2643 10.7824H14.6086Z" fill="#F0F0F0"/>
<path d="M14.6086 10.7824L24 15.9996V14.5243L17.2643 10.7824H14.6086Z" fill="#D80027"/>
<path d="M4.23474 10.7823L0 13.1349V10.7823H4.23474ZM9.39131 11.4457V15.9996H1.19489L9.39131 11.4457Z" fill="#0052B4"/>
<path d="M6.73561 10.7824L0 14.5243V15.9996L9.39131 10.7824H6.73561Z" fill="#D80027"/>
<path d="M5.54133 5.21727L0 2.13877V5.21727H5.54133ZM9.39131 5.21727L0 0V1.47531L6.73561 5.21727H9.39131ZM2.50153 0L9.39131 3.82792V0H2.50153Z" fill="#0052B4"/>
<path d="M9.39131 5.21727L0 0V1.47531L6.73561 5.21727H9.39131Z" fill="#F0F0F0"/>
<path d="M9.39131 5.21727L0 0V1.47531L6.73561 5.21727H9.39131Z" fill="#D80027"/>
<path d="M19.7652 5.21737L24 2.86476V5.21737H19.7652ZM14.6086 4.55391V4.95911e-05H22.8051L14.6086 4.55391Z" fill="#0052B4"/>
<path d="M17.2643 5.21727L24 1.47531V0L14.6086 5.21727H17.2643Z" fill="#D80027"/>
</g>
<defs>
<clipPath id="clip0_283_590">
<rect width="24" height="16" fill="white"/>
</clipPath>
</defs>
</svg>
